<?xml version="1.0" encoding="UTF-8"?>
<svg id="Layer_2" data-name="Layer 2" xmlns="http://www.w3.org/2000/svg" viewBox="0 0 881.41 726.35">
  <defs>
    <style>
      .cls-1 {
        fill: #36ae7c;
      }

      .cls-1, .cls-2, .cls-3, .cls-4, .cls-5 {
        stroke-width: 0px;
      }

      .cls-2 {
        fill: #f9d923;
      }

      .cls-3 {
        fill: #323232;
      }

      .cls-4 {
        fill: #eb5353;
      }

      .cls-5 {
        fill: #187498;
      }
    </style>
  </defs>
  <g id="Layer_1-2" data-name="Layer 1">
    <path class="cls-3" d="m92.64,390.86h-34.07v-84.93L0,212.12h40.13l35.47,61.83,35.7-61.83h39.2l-57.87,93.8v84.93Z"/>
    <path class="cls-5" d="m321.54,367.06c-18.36,18.2-40.37,27.3-66.03,27.3s-46.98-9.1-64.87-27.3-26.83-40.06-26.83-65.57,8.94-48.38,26.83-66.27,39.67-26.83,65.33-26.83,47.6,9.06,65.8,27.18,27.3,40.02,27.3,65.68-9.18,47.6-27.53,65.8Z"/>
    <path class="cls-3" d="m501.55,375.11c-11.9,12.83-28.97,19.25-51.22,19.25-23.64,0-41.38-6.07-53.2-18.2-11.82-12.13-17.73-28.23-17.73-48.3v-115.74h34.07v114.8c0,10.27,3.19,18.78,9.57,25.55,6.38,6.77,15.32,10.15,26.83,10.15,12.29,0,21.27-3.54,26.95-10.62,5.68-7.08,8.52-16.06,8.52-26.95v-112.94h34.07v113.87c0,19.91-5.95,36.28-17.85,49.12Z"/>
    <g>
      <path class="cls-3" d="m93.26,178.74h-34.07V31.03H22.56V0h107.33v31.03h-36.63v147.7Z"/>
      <path class="cls-3" d="m262.2,104.77h-74.67v73.97h-34.07V0h34.07v74.2h74.67V0h34.07v178.74h-34.07v-73.97Z"/>
      <path class="cls-3" d="m551.53,50.63v128.1h-34.07V0h34.53l90.77,129.5V0h33.13v178.74h-34.07l-90.3-128.1Z"/>
      <path class="cls-3" d="m859.53,178.74h-45.73l-63.47-82.13v82.13h-34.07V0h34.07v79.33L816.36,0h43.87l-75.6,86.1,74.9,92.63Z"/>
      <polygon class="cls-4" points="406.63 0 318.66 178.74 494.6 178.74 406.63 0"/>
    </g>
    <g>
      <path class="cls-3" d="m93.26,602.98h-34.07v-147.7H22.56v-31.03h107.33v31.03h-36.63v147.7Z"/>
      <path class="cls-3" d="m301.4,579.18c-18.36,18.2-40.37,27.3-66.03,27.3s-46.98-9.1-64.87-27.3c-17.89-18.2-26.83-40.06-26.83-65.57s8.94-48.38,26.83-66.27c17.89-17.89,39.67-26.83,65.33-26.83s47.6,9.06,65.8,27.18c18.2,18.12,27.3,40.02,27.3,65.68s-9.18,47.6-27.53,65.8Zm-23.68-108.97c-11.12-11.36-25.08-17.03-41.88-17.03s-30.92,5.68-41.88,17.03c-10.97,11.36-16.45,25.82-16.45,43.4s5.56,31.38,16.68,42.82c11.12,11.43,24.93,17.15,41.42,17.15s30.8-5.79,42-17.38c11.2-11.59,16.8-25.78,16.8-42.58s-5.56-32.04-16.68-43.4Z"/>
      <path class="cls-3" d="m502.53,602.98h-45.73l-63.47-82.13v82.13h-34.07v-178.74h34.07v79.33l66.03-79.33h43.87l-75.6,86.1,74.9,92.63Z"/>
      <path class="cls-3" d="m558.06,498.91h61.6v28.7h-61.6v47.13h62.3v28.23h-96.37v-178.74h96.83v29.17h-62.77v45.5Z"/>
      <path class="cls-3" d="m690.59,474.88v128.1h-34.07v-178.74h34.53l90.77,129.5v-129.5h33.13v178.74h-34.07l-90.3-128.1Z"/>
      <rect class="cls-1" x="839.05" y="560.62" width="42.36" height="42.36"/>
    </g>
    <rect class="cls-2" x="22.56" y="636.13" width="858.84" height="21.18"/>
    <g>
      <path class="cls-3" d="m271.97,725.62l23.9-40.73h7.07l6.65,40.73h-6.28l-1.28-8.9h-18.41l-5.06,8.9h-6.59Zm14.39-13.78h15l-2.99-21.16-12.01,21.16Z"/>
      <path class="cls-3" d="m348.74,726.35c-3.17,0-5.88-.71-8.11-2.13-2.24-1.42-3.94-3.4-5.12-5.95-1.18-2.54-1.77-5.48-1.77-8.81s.54-6.65,1.62-9.7c1.08-3.05,2.6-5.74,4.57-8.08,1.97-2.34,4.32-4.18,7.04-5.52,2.72-1.34,5.71-2.01,8.96-2.01,3.78,0,6.91.77,9.39,2.32,2.48,1.55,4.17,3.86,5.06,6.95l-5.43,1.83c-.41-1.54-1.38-2.97-2.93-4.27-1.55-1.3-3.72-1.95-6.52-1.95-2.48,0-4.7.56-6.65,1.68-1.95,1.12-3.62,2.63-5,4.54-1.38,1.91-2.44,4.05-3.17,6.4-.73,2.36-1.1,4.8-1.1,7.32,0,3.9.97,6.95,2.9,9.15,1.93,2.2,4.36,3.33,7.29,3.41,2.03.08,3.96-.19,5.79-.82,1.83-.63,3.45-1.75,4.85-3.35,1.4-1.6,2.43-3.79,3.08-6.56l.3-1.28h-11.95l1.04-4.88h17.5l-4.51,20.98h-3.41l-.37-5c-3.41,3.82-7.87,5.73-13.35,5.73Z"/>
      <path class="cls-3" d="m388.37,726.35c-3.98,0-7.12-1.16-9.42-3.48-2.3-2.32-3.45-5.45-3.45-9.39,0-3.54.7-6.71,2.1-9.51,1.4-2.81,3.39-5.02,5.98-6.65,2.58-1.63,5.62-2.44,9.12-2.44,2.72,0,4.98.55,6.77,1.65,1.79,1.1,3.14,2.59,4.06,4.48.91,1.89,1.37,3.99,1.37,6.31,0,1.46-.18,2.99-.55,4.57h-23.42c-.04.29-.06.57-.06.85v.85c0,2.07.4,3.71,1.19,4.91.79,1.2,1.82,2.05,3.08,2.56,1.26.51,2.54.76,3.84.76,1.71,0,3.17-.27,4.39-.82,1.22-.55,2.26-1.27,3.11-2.16l4.76,1.46c-1.38,1.79-3.14,3.24-5.27,4.36s-4.66,1.68-7.59,1.68Zm-6.71-18.6h17.87c.04-.2.06-.39.06-.55v-.49c0-1.22-.25-2.4-.76-3.54-.51-1.14-1.32-2.07-2.44-2.8-1.12-.73-2.59-1.1-4.42-1.1-1.5,0-2.97.33-4.39.98-1.42.65-2.66,1.61-3.72,2.87-1.06,1.26-1.79,2.8-2.2,4.63Z"/>
      <path class="cls-3" d="m419.9,726.35c-3.05,0-5.61-.59-7.68-1.77-2.07-1.18-3.64-3.13-4.7-5.85l5.24-1.77c.32,1.79,1.22,3.11,2.68,3.96,1.46.85,3.01,1.28,4.63,1.28s3.19-.43,4.57-1.28c1.38-.85,2.07-2.07,2.07-3.66,0-1.14-.41-2.02-1.22-2.65-.81-.63-1.86-1.15-3.14-1.55-1.28-.41-2.63-.8-4.05-1.19-1.42-.39-2.77-.89-4.06-1.52-1.28-.63-2.33-1.49-3.14-2.59-.81-1.1-1.22-2.56-1.22-4.39s.57-3.49,1.71-4.73c1.14-1.24,2.59-2.17,4.36-2.81,1.77-.63,3.63-.95,5.58-.95,1.67,0,3.29.23,4.88.7,1.59.47,2.99,1.16,4.21,2.07,1.22.91,2.07,2.06,2.56,3.45l-4.88,1.71c-.41-1.22-1.32-2.14-2.74-2.77-1.42-.63-2.91-.95-4.45-.95s-2.94.33-4.18.98c-1.24.65-1.86,1.65-1.86,2.99,0,1.1.41,1.96,1.22,2.59.81.63,1.87,1.15,3.17,1.55,1.3.41,2.67.8,4.12,1.19,1.44.39,2.81.9,4.12,1.55,1.3.65,2.36,1.51,3.17,2.59.81,1.08,1.22,2.53,1.22,4.36,0,2.07-.55,3.81-1.65,5.21-1.1,1.4-2.56,2.46-4.39,3.17-1.83.71-3.88,1.07-6.16,1.07Z"/>
      <path class="cls-3" d="m445.88,725.62c-2.36,0-3.97-.34-4.85-1.01-.87-.67-1.31-1.7-1.31-3.08,0-.89.2-2.28.61-4.15l3.84-17.87h-5.06l.85-4.15h5.06l1.65-7.56h5.24l-1.65,7.56h5.79l-.85,4.15h-5.79l-3.54,16.4c-.16.73-.29,1.39-.4,1.98-.1.59-.15,1.05-.15,1.37,0,.65.18,1.11.55,1.37.37.27,1.06.4,2.07.4h2.68l-.98,4.57h-3.78Z"/>
      <path class="cls-3" d="m466.42,726.29c-2.97,0-5.06-.81-6.28-2.44-1.22-1.63-1.83-3.64-1.83-6.04,0-1.46.18-2.99.55-4.57l3.78-17.87h5.24l-3.78,17.74c-.16.73-.3,1.45-.4,2.16-.1.71-.15,1.37-.15,1.98,0,1.34.34,2.44,1.01,3.29.67.85,1.9,1.28,3.69,1.28,2.4,0,4.51-.82,6.34-2.47,1.83-1.65,3.15-4.36,3.96-8.14l3.41-15.85h5.18l-6.4,30.24h-3.96l-.37-4.27c-1.3,1.71-2.71,2.96-4.24,3.75-1.52.79-3.45,1.19-5.76,1.19Z"/>
      <path class="cls-3" d="m489.29,725.62l6.4-30.24h3.84l.49,5.67c1.26-1.79,2.73-3.26,4.42-4.42,1.69-1.16,4.03-1.74,7.04-1.74h.67l-1.16,5.43c-1.14-.04-2.2.02-3.17.18-3.09.49-5.46,1.86-7.1,4.12-1.65,2.26-2.84,5.09-3.57,8.51l-2.62,12.5h-5.24Z"/>
      <path class="cls-3" d="m524.84,726.35c-3.98,0-7.12-1.16-9.42-3.48s-3.45-5.45-3.45-9.39c0-3.54.7-6.71,2.1-9.51,1.4-2.81,3.39-5.02,5.98-6.65,2.58-1.63,5.62-2.44,9.12-2.44,2.72,0,4.98.55,6.77,1.65,1.79,1.1,3.14,2.59,4.06,4.48.91,1.89,1.37,3.99,1.37,6.31,0,1.46-.18,2.99-.55,4.57h-23.42c-.04.29-.06.57-.06.85v.85c0,2.07.4,3.71,1.19,4.91.79,1.2,1.82,2.05,3.08,2.56,1.26.51,2.54.76,3.84.76,1.71,0,3.17-.27,4.39-.82,1.22-.55,2.26-1.27,3.11-2.16l4.76,1.46c-1.38,1.79-3.14,3.24-5.27,4.36s-4.66,1.68-7.59,1.68Zm-6.71-18.6h17.87c.04-.2.06-.39.06-.55v-.49c0-1.22-.25-2.4-.76-3.54-.51-1.14-1.32-2.07-2.44-2.8-1.12-.73-2.59-1.1-4.42-1.1-1.5,0-2.97.33-4.39.98-1.42.65-2.66,1.61-3.72,2.87-1.06,1.26-1.79,2.8-2.2,4.63Z"/>
      <path class="cls-3" d="m574.48,726.35c-4.07,0-7.14-1.2-9.24-3.6-2.09-2.4-3.14-5.49-3.14-9.27,0-3.54.71-6.71,2.13-9.51,1.42-2.81,3.4-5.02,5.95-6.65,2.54-1.63,5.46-2.44,8.75-2.44,2.07,0,4.03.45,5.88,1.34,1.85.89,3.35,2.27,4.51,4.12,1.16,1.85,1.74,4.22,1.74,7.1,0,2.56-.41,4.98-1.22,7.26-.81,2.28-1.95,4.29-3.41,6.04-1.46,1.75-3.21,3.12-5.24,4.12-2.03,1-4.27,1.49-6.71,1.49Zm.43-4.51c2.36,0,4.33-.71,5.91-2.13,1.59-1.42,2.78-3.24,3.6-5.46.81-2.21,1.22-4.54,1.22-6.98,0-2.97-.72-5.02-2.16-6.16-1.44-1.14-3.22-1.71-5.34-1.71-2.4,0-4.39.69-5.98,2.07-1.59,1.38-2.77,3.15-3.54,5.3-.77,2.16-1.16,4.41-1.16,6.77,0,2.48.63,4.48,1.89,6.01,1.26,1.52,3.11,2.29,5.55,2.29Z"/>
      <path class="cls-3" d="m596.06,725.62l5.55-26.1h-5.12l.92-4.15h5.06l.73-3.23c.49-2.07,1-3.74,1.52-5,.53-1.26,1.16-2.21,1.89-2.87.73-.65,1.65-1.09,2.74-1.31,1.1-.22,2.48-.36,4.15-.4h3.11l-.92,4.33h-1.46c-.97,0-1.83.08-2.56.24-.73.16-1.34.55-1.83,1.16s-.89,1.61-1.22,2.99l-.92,4.09h6.22l-.91,4.15h-6.16l-5.55,26.1h-5.24Z"/>
      <path class="cls-3" d="m648.69,726.35c-3.17,0-5.87-.71-8.11-2.13-2.24-1.42-3.94-3.4-5.12-5.95-1.18-2.54-1.77-5.48-1.77-8.81s.54-6.65,1.62-9.7c1.08-3.05,2.6-5.74,4.57-8.08,1.97-2.34,4.32-4.18,7.04-5.52,2.72-1.34,5.71-2.01,8.96-2.01,3.78,0,6.91.77,9.39,2.32,2.48,1.55,4.17,3.86,5.06,6.95l-5.43,1.83c-.41-1.54-1.38-2.97-2.93-4.27-1.55-1.3-3.72-1.95-6.52-1.95-2.48,0-4.7.56-6.65,1.68-1.95,1.12-3.62,2.63-5,4.54-1.38,1.91-2.44,4.05-3.17,6.4-.73,2.36-1.1,4.8-1.1,7.32,0,3.9.97,6.95,2.9,9.15,1.93,2.2,4.36,3.33,7.29,3.41,2.03.08,3.96-.19,5.79-.82,1.83-.63,3.45-1.75,4.85-3.35,1.4-1.6,2.43-3.79,3.08-6.56l.31-1.28h-11.95l1.04-4.88h17.5l-4.51,20.98h-3.42l-.37-5c-3.41,3.82-7.87,5.73-13.35,5.73Z"/>
      <path class="cls-3" d="m674.3,725.62l6.4-30.24h3.84l.49,5.67c1.26-1.79,2.73-3.26,4.42-4.42,1.69-1.16,4.03-1.74,7.04-1.74h.67l-1.16,5.43c-1.14-.04-2.2.02-3.17.18-3.09.49-5.46,1.86-7.1,4.12-1.65,2.26-2.84,5.09-3.57,8.51l-2.62,12.5h-5.24Z"/>
      <path class="cls-3" d="m703.81,726.35c-2.6,0-4.77-.71-6.49-2.13-1.73-1.42-2.59-3.33-2.59-5.73,0-2.03.54-3.72,1.62-5.06,1.08-1.34,2.48-2.42,4.21-3.23,1.73-.81,3.6-1.43,5.61-1.86,2.01-.43,3.97-.74,5.88-.95,1.91-.2,3.56-.39,4.94-.55.12-.57.22-1.1.3-1.59.08-.49.12-.95.12-1.4,0-3.21-1.87-4.82-5.61-4.82-1.87,0-3.46.42-4.76,1.25-1.3.83-2.3,1.98-2.99,3.45l-4.57-1.4c1.06-2.28,2.6-4.09,4.63-5.43,2.03-1.34,4.51-2.01,7.44-2.01,3.54,0,6.26.71,8.17,2.13,1.91,1.42,2.87,3.62,2.87,6.59,0,.69-.05,1.38-.15,2.07-.1.69-.29,1.67-.55,2.93-.26,1.26-.66,3.11-1.19,5.55-.53,2.52-.88,4.71-1.07,6.56-.18,1.85-.29,3.49-.34,4.91h-4.82l-.24-3.84c-1.34,1.51-2.82,2.64-4.42,3.42-1.61.77-3.61,1.16-6.01,1.16Zm1.65-4.21c2.76,0,5.13-.92,7.1-2.77,1.97-1.85,3.22-4.32,3.75-7.41l.18-1.04c-3.38.33-6.26.7-8.66,1.13-2.4.43-4.23,1.09-5.49,1.98-1.26.9-1.89,2.22-1.89,3.96,0,1.38.49,2.42,1.46,3.11.98.69,2.15,1.04,3.54,1.04Z"/>
      <path class="cls-3" d="m735.94,725.62c-2.36,0-3.97-.34-4.85-1.01-.87-.67-1.31-1.7-1.31-3.08,0-.89.2-2.28.61-4.15l3.84-17.87h-5.06l.85-4.15h5.06l1.65-7.56h5.24l-1.65,7.56h5.79l-.85,4.15h-5.79l-3.54,16.4c-.16.73-.29,1.39-.4,1.98-.1.59-.15,1.05-.15,1.37,0,.65.18,1.11.55,1.37.37.27,1.06.4,2.07.4h2.68l-.98,4.57h-3.78Z"/>
      <path class="cls-3" d="m748.75,725.62l5.55-26.1h-4.88l.85-4.15h10.12l-6.4,30.24h-5.24Zm11.16-36.04c-1.02,0-1.9-.38-2.65-1.13-.75-.75-1.13-1.64-1.13-2.65s.38-1.96,1.13-2.71,1.64-1.13,2.65-1.13,1.96.38,2.71,1.13c.75.75,1.13,1.66,1.13,2.71s-.38,1.9-1.13,2.65-1.66,1.13-2.71,1.13Z"/>
      <path class="cls-3" d="m772.16,725.62c-2.36,0-3.97-.34-4.85-1.01-.87-.67-1.31-1.7-1.31-3.08,0-.89.2-2.28.61-4.15l3.84-17.87h-5.06l.85-4.15h5.06l1.65-7.56h5.24l-1.65,7.56h5.79l-.85,4.15h-5.79l-3.54,16.4c-.16.73-.29,1.39-.4,1.98-.1.59-.15,1.05-.15,1.37,0,.65.18,1.11.55,1.37.37.27,1.06.4,2.07.4h2.68l-.98,4.57h-3.78Z"/>
      <path class="cls-3" d="m792.71,726.29c-2.97,0-5.06-.81-6.28-2.44-1.22-1.63-1.83-3.64-1.83-6.04,0-1.46.18-2.99.55-4.57l3.78-17.87h5.24l-3.78,17.74c-.16.73-.3,1.45-.4,2.16-.1.71-.15,1.37-.15,1.98,0,1.34.34,2.44,1.01,3.29.67.85,1.9,1.28,3.69,1.28,2.4,0,4.51-.82,6.34-2.47,1.83-1.65,3.15-4.36,3.96-8.14l3.41-15.85h5.18l-6.4,30.24h-3.96l-.37-4.27c-1.3,1.71-2.71,2.96-4.24,3.75-1.52.79-3.45,1.19-5.76,1.19Z"/>
      <path class="cls-3" d="m827.59,726.35c-2.28,0-4.23-.55-5.85-1.65-1.63-1.1-2.87-2.61-3.72-4.54-.85-1.93-1.28-4.14-1.28-6.62s.34-4.77,1.04-6.98c.69-2.21,1.68-4.21,2.96-5.98,1.28-1.77,2.84-3.16,4.66-4.18,1.83-1.02,3.9-1.52,6.22-1.52s4.41.62,6.04,1.86c1.63,1.24,2.72,2.77,3.29,4.6l3.48-16.46h5.24c-.45,2.16-.86,4.14-1.25,5.95-.39,1.81-.81,3.79-1.28,5.95-.47,2.16-.94,4.34-1.4,6.56-.47,2.22-.91,4.27-1.31,6.16-.41,1.89-.73,3.45-.98,4.66-.2,1.02-.48,2.52-.82,4.51-.35,1.99-.54,4.31-.58,6.95h-4.94l-.3-3.72c-1.02,1.3-2.25,2.37-3.69,3.2-1.44.83-3.28,1.25-5.52,1.25Zm1.28-4.39c2.11,0,3.95-.62,5.52-1.86,1.56-1.24,2.78-2.89,3.66-4.94.87-2.05,1.31-4.28,1.31-6.68,0-2.81-.61-5.04-1.83-6.71-1.22-1.67-3.01-2.5-5.37-2.5-2.11,0-3.91.7-5.4,2.1-1.48,1.4-2.61,3.19-3.38,5.37-.77,2.18-1.16,4.42-1.16,6.74,0,2.85.66,4.97,1.98,6.37,1.32,1.4,2.88,2.1,4.66,2.1Z"/>
      <path class="cls-3" d="m863.44,726.35c-3.98,0-7.12-1.16-9.42-3.48-2.3-2.32-3.45-5.45-3.45-9.39,0-3.54.7-6.71,2.1-9.51,1.4-2.81,3.39-5.02,5.98-6.65,2.58-1.63,5.62-2.44,9.12-2.44,2.72,0,4.98.55,6.77,1.65,1.79,1.1,3.14,2.59,4.06,4.48.91,1.89,1.37,3.99,1.37,6.31,0,1.46-.18,2.99-.55,4.57h-23.42c-.04.29-.06.57-.06.85v.85c0,2.07.4,3.71,1.19,4.91.79,1.2,1.82,2.05,3.08,2.56,1.26.51,2.54.76,3.84.76,1.71,0,3.17-.27,4.39-.82,1.22-.55,2.26-1.27,3.11-2.16l4.76,1.46c-1.38,1.79-3.14,3.24-5.27,4.36s-4.66,1.68-7.59,1.68Zm-6.71-18.6h17.87c.04-.2.06-.39.06-.55v-.49c0-1.22-.25-2.4-.76-3.54-.51-1.14-1.32-2.07-2.44-2.8-1.12-.73-2.59-1.1-4.42-1.1-1.5,0-2.97.33-4.39.98-1.42.65-2.66,1.61-3.72,2.87-1.06,1.26-1.79,2.8-2.2,4.63Z"/>
    </g>
  </g>
</svg>